<svg width="64" height="62" viewBox="0 0 64 62" fill="none" xmlns="http://www.w3.org/2000/svg">
<path d="M32.5731 61.5981C49.2401 61.6765 62.8458 48.2654 62.9624 31.6435C63.079 15.0216 49.6623 1.48331 32.9953 1.4049C16.3283 1.32649 2.72252 14.7376 2.60594 31.3595C2.48935 47.9814 15.9061 61.5197 32.5731 61.5981Z" fill="url(#paint0_linear)"/>
<path d="M21.5845 51.6548C35.0128 56.3405 49.7323 49.2741 54.4614 35.8716C59.1905 22.469 52.1383 7.80562 38.71 3.11992C25.2816 -1.56578 10.5621 5.50062 5.83304 18.9032C1.10397 32.3057 8.15612 46.9691 21.5845 51.6548Z" fill="url(#paint1_linear)"/>
<path opacity="0.6" d="M42.1765 60.0608C42.1765 60.0608 35.0394 32.6784 62.3002 37.7709C57.928 56.0534 42.1765 60.0608 42.1765 60.0608Z" fill="#70BAE1"/>
<path d="M42.9345 46.003L40.8132 42.8176C39.9369 43.9643 38.842 44.8924 37.5286 45.602C36.2153 46.2907 34.7774 46.6359 33.2148 46.6374L32.2461 46.6383C30.9544 46.6396 29.7359 46.4012 28.5906 45.9231C27.4454 45.4242 26.4462 44.7481 25.593 43.8948C24.7399 43.0415 24.064 42.0421 23.5653 40.8968C23.0875 39.7515 22.8494 38.533 22.851 37.2413L22.8513 36.9288C22.8529 35.6372 23.0939 34.4182 23.5745 33.2719C24.0758 32.1256 24.7541 31.125 25.6093 30.27C26.4645 29.415 27.4653 28.7474 28.6118 28.2671C29.7582 27.766 30.9773 27.5148 32.269 27.5136L40.3941 27.5057L40.4 22.5683C40.4009 21.7975 40.2559 21.0789 39.965 20.4125C39.6742 19.7253 39.2791 19.1319 38.7797 18.6324C38.2802 18.1329 37.687 17.7377 36.9998 17.4467C36.3335 17.1556 35.6149 17.0105 34.844 17.0113L32.594 17.0134C31.8232 17.0142 31.0938 17.1607 30.406 17.453C29.7389 17.7454 29.1551 18.1417 28.6545 18.6422C28.1539 19.1427 27.7574 19.7368 27.4649 20.4246C27.1724 21.0915 27.0257 21.8104 27.0248 22.5812L27.0234 23.7375L23.1804 23.1162L23.1807 22.8037C23.1823 21.5121 23.4233 20.2931 23.9039 19.1468C24.4052 18.0005 25.0835 16.9999 25.9387 16.1449C26.7939 15.2899 27.7947 14.6223 28.9412 14.142C30.0876 13.6409 31.3067 13.3897 32.5984 13.3885L34.8484 13.3863C36.1401 13.3851 37.3585 13.6339 38.5038 14.1328C39.6491 14.6108 40.6483 15.2765 41.5014 16.1298C42.3546 16.9832 43.0201 17.9825 43.4979 19.1279C43.9965 20.2732 44.245 21.4917 44.2435 22.7833L44.2157 46.0017L42.9345 46.003ZM40.3905 30.5057L32.2654 30.5135C31.4945 30.5143 30.7652 30.6608 30.0773 30.9532C29.4103 31.2455 28.8265 31.6523 28.3258 32.1736C27.8252 32.6741 27.4287 33.2682 27.1362 33.956C26.8437 34.6229 26.697 35.3418 26.6961 36.1126L26.6945 37.4563C26.6936 38.2272 26.8385 38.9562 27.1294 39.6434C27.4203 40.3098 27.8154 40.8927 28.3148 41.3922C28.8142 41.8917 29.3971 42.287 30.0634 42.578C30.7506 42.869 31.4796 43.0141 32.2504 43.0134L34.8129 43.0109C35.5838 43.0101 36.3027 42.8636 36.9697 42.5713C37.6576 42.279 38.2518 41.8826 38.7524 41.3821C39.253 40.8816 39.6496 40.2979 39.942 39.631C40.2345 38.9432 40.3812 38.2139 40.3822 37.4431L40.3905 30.5057Z" fill="white"/>
<defs>
<linearGradient id="paint0_linear" x1="47.6923" y1="5.7479" x2="16.8554" y2="54.8273" gradientUnits="userSpaceOnUse">
<stop stop-color="#6B5176"/>
<stop offset="1" stop-color="#679FCB"/>
</linearGradient>
<linearGradient id="paint1_linear" x1="41.2378" y1="6.94557" x2="13.2403" y2="46.8277" gradientUnits="userSpaceOnUse">
<stop stop-color="#847EB1"/>
<stop offset="1" stop-color="#56B8E4"/>
</linearGradient>
</defs>
</svg>
