<svg width="150" height="64" viewBox="0 0 150 64" fill="none" xmlns="http://www.w3.org/2000/svg">
<rect y="1.29259" width="150" height="62.0446" fill="#10074E"/>
<g clip-path="url(#clip0)">
<path d="M37.4808 62.5664C54.7268 62.6513 68.7991 49.0358 68.9123 32.1553C69.0254 15.2749 55.1365 1.52177 37.8906 1.43688C20.6446 1.35198 6.57224 14.9675 6.45909 31.8479C6.34594 48.7283 20.2348 62.4815 37.4808 62.5664Z" fill="url(#paint0_linear)"/>
<path d="M26.106 52.4649C40.0029 57.2278 55.2305 50.0561 60.1178 36.4465C65.0051 22.837 57.7014 7.94322 43.8045 3.18038C29.9076 -1.58245 14.68 5.58922 9.79268 19.1988C4.90537 32.8083 12.2091 47.7021 26.106 52.4649Z" fill="url(#paint1_linear)"/>
<path opacity="0.6" d="M47.4171 61.0082C47.4171 61.0082 40.0198 33.1976 68.2298 38.3779C63.7139 56.9435 47.4171 61.0082 47.4171 61.0082Z" fill="#70BAE1"/>
<path d="M44.9363 49.0025L42.8137 45.8164C41.9378 46.9628 40.8434 47.8906 39.5303 48.5998C38.2173 49.2881 36.7795 49.6328 35.217 49.6338L34.2482 49.6344C32.9565 49.6352 31.7379 49.3964 30.5925 48.918C29.447 48.4188 28.4475 47.7423 27.594 46.8887C26.7405 46.0351 26.0642 45.0356 25.5651 43.8901C25.0868 42.7446 24.8482 41.526 24.8492 40.2343L24.8494 39.9218C24.8504 38.6302 25.0909 37.4113 25.571 36.2651C26.0719 35.119 26.7497 34.1186 27.6046 33.2639C28.4594 32.4092 29.46 31.7419 30.6062 31.262C31.7524 30.7612 32.9714 30.5104 34.263 30.5096L42.3881 30.5044L42.3919 25.5669C42.3925 24.7961 42.2473 24.0775 41.9561 23.411C41.665 22.7237 41.2696 22.1302 40.77 21.6305C40.2704 21.1309 39.6769 20.7354 38.9896 20.4442C38.3232 20.1529 37.6045 20.0076 36.8337 20.0081L34.5837 20.0095C33.8128 20.01 33.0836 20.1563 32.3958 20.4484C31.7289 20.7405 31.1453 21.1367 30.6449 21.637C30.1445 22.1374 29.7482 22.7314 29.456 23.419C29.1638 24.0859 29.0174 24.8047 29.0168 25.5756L29.0159 26.7318L25.1726 26.1093L25.1729 25.7968C25.1739 24.5051 25.4144 23.2862 25.8944 22.1401C26.3953 20.994 27.0732 19.9935 27.928 19.1388C28.7829 18.2841 29.7834 17.6168 30.9296 17.1369C32.0759 16.6362 33.2948 16.3854 34.5865 16.3846L36.8365 16.3831C38.1282 16.3823 39.3468 16.6315 40.4922 17.1308C41.6377 17.6092 42.6372 18.2752 43.4907 19.1288C44.3442 19.9824 45.0101 20.982 45.4884 22.1275C45.9875 23.273 46.2366 24.4916 46.2356 25.7832L46.2175 49.0017L44.9363 49.0025ZM42.3858 33.5043L34.2607 33.5096C33.4899 33.5101 32.7606 33.6564 32.0728 33.9485C31.4059 34.2406 30.8223 34.6472 30.3219 35.1684C29.8215 35.6687 29.4252 36.2627 29.133 36.9503C28.8408 37.6172 28.6944 38.336 28.6938 39.1069L28.6928 40.4506C28.6922 41.2214 28.8374 41.9505 29.1286 42.6378C29.4197 43.3043 29.8151 43.8873 30.3147 44.387C30.8143 44.8867 31.3974 45.2821 32.0638 45.5734C32.7511 45.8646 33.4802 46.0099 34.251 46.0094L36.8135 46.0078C37.5844 46.0073 38.3032 45.861 38.9701 45.5689C39.6579 45.2768 40.2519 44.8806 40.7523 44.3803C41.2527 43.88 41.649 43.2964 41.9412 42.6295C42.2334 41.9419 42.3798 41.2126 42.3804 40.4418L42.3858 33.5043Z" fill="white"/>
</g>
<path d="M62.0234 42V28.8164C62.0234 28.3828 61.9414 27.9785 61.7773 27.6035C61.6133 27.2168 61.3906 26.8828 61.1094 26.6016C60.8281 26.3203 60.4941 26.0977 60.1074 25.9336C59.7324 25.7695 59.3281 25.6875 58.8945 25.6875H57.4531C57.0195 25.6875 56.6094 25.7695 56.2227 25.9336C55.8477 26.0977 55.5195 26.3203 55.2383 26.6016C54.957 26.8828 54.7344 27.2168 54.5703 27.6035C54.4062 27.9785 54.3242 28.3828 54.3242 28.8164V42H52.1621V24H52.8828L54.0605 25.8281C54.5527 25.1602 55.168 24.6328 55.9062 24.2461C56.6562 23.8477 57.4707 23.6484 58.3496 23.6484H58.8945C59.6211 23.6484 60.3066 23.7891 60.9512 24.0703C61.5957 24.3398 62.1582 24.7148 62.6387 25.1953C63.1191 25.6758 63.4941 26.2383 63.7637 26.8828C64.0449 27.5273 64.1855 28.2129 64.1855 28.9395V42H62.0234ZM79.8125 42L78.6172 40.207C78.125 40.8516 77.5098 41.373 76.7715 41.7715C76.0332 42.1582 75.2246 42.3516 74.3457 42.3516H73.8008C73.0742 42.3516 72.3887 42.2168 71.7441 41.9473C71.0996 41.666 70.5371 41.2852 70.0566 40.8047C69.5762 40.3242 69.1953 39.7617 68.9141 39.1172C68.6445 38.4727 68.5098 37.7871 68.5098 37.0605V36.8848C68.5098 36.1582 68.6445 35.4727 68.9141 34.8281C69.1953 34.1836 69.5762 33.6211 70.0566 33.1406C70.5371 32.6602 71.0996 32.2852 71.7441 32.0156C72.3887 31.7344 73.0742 31.5938 73.8008 31.5938H78.3711V28.8164C78.3711 28.3828 78.2891 27.9785 78.125 27.6035C77.9609 27.2168 77.7383 26.8828 77.457 26.6016C77.1758 26.3203 76.8418 26.0977 76.4551 25.9336C76.0801 25.7695 75.6758 25.6875 75.2422 25.6875H73.9766C73.543 25.6875 73.1328 25.7695 72.7461 25.9336C72.3711 26.0977 72.043 26.3203 71.7617 26.6016C71.4805 26.8828 71.2578 27.2168 71.0938 27.6035C70.9297 27.9785 70.8477 28.3828 70.8477 28.8164V29.4668L68.6855 29.1152V28.9395C68.6855 28.2129 68.8203 27.5273 69.0898 26.8828C69.3711 26.2383 69.752 25.6758 70.2324 25.1953C70.7129 24.7148 71.2754 24.3398 71.9199 24.0703C72.5645 23.7891 73.25 23.6484 73.9766 23.6484H75.2422C75.9688 23.6484 76.6543 23.7891 77.2988 24.0703C77.9434 24.3398 78.5059 24.7148 78.9863 25.1953C79.4668 25.6758 79.8418 26.2383 80.1113 26.8828C80.3926 27.5273 80.5332 28.2129 80.5332 28.9395V42H79.8125ZM78.3711 33.2812H73.8008C73.3672 33.2812 72.957 33.3633 72.5703 33.5273C72.1953 33.6914 71.8672 33.9199 71.5859 34.2129C71.3047 34.4941 71.082 34.8281 70.918 35.2148C70.7539 35.5898 70.6719 35.9941 70.6719 36.4277V37.1836C70.6719 37.6172 70.7539 38.0273 70.918 38.4141C71.082 38.7891 71.3047 39.1172 71.5859 39.3984C71.8672 39.6797 72.1953 39.9023 72.5703 40.0664C72.957 40.2305 73.3672 40.3125 73.8008 40.3125H75.2422C75.6758 40.3125 76.0801 40.2305 76.4551 40.0664C76.8418 39.9023 77.1758 39.6797 77.457 39.3984C77.7383 39.1172 77.9609 38.7891 78.125 38.4141C78.2891 38.0273 78.3711 37.6172 78.3711 37.1836V33.2812ZM94.7188 42V28.8164C94.7188 28.3828 94.6367 27.9785 94.4727 27.6035C94.3086 27.2168 94.0859 26.8828 93.8047 26.6016C93.5234 26.3203 93.1895 26.0977 92.8027 25.9336C92.4277 25.7695 92.0234 25.6875 91.5898 25.6875H90.1484C89.7148 25.6875 89.3047 25.7695 88.918 25.9336C88.543 26.0977 88.2148 26.3203 87.9336 26.6016C87.6523 26.8828 87.4297 27.2168 87.2656 27.6035C87.1016 27.9785 87.0195 28.3828 87.0195 28.8164V42H84.8574V24H85.5781L86.7559 25.8281C87.248 25.1602 87.8633 24.6328 88.6016 24.2461C89.3516 23.8477 90.166 23.6484 91.0449 23.6484H91.5898C92.3164 23.6484 93.002 23.7891 93.6465 24.0703C94.291 24.3398 94.8535 24.7148 95.334 25.1953C95.8145 25.6758 96.1895 26.2383 96.459 26.8828C96.7402 27.5273 96.8809 28.2129 96.8809 28.9395V42H94.7188ZM104.123 49.207H102.031L105.23 40.4531L99.3945 24H101.557L106.25 37.6406L106.32 38.5723L106.391 37.6406L111.066 24H113.229L104.123 49.207ZM126.711 42L125.516 40.207C125.023 40.8516 124.408 41.373 123.67 41.7715C122.932 42.1582 122.123 42.3516 121.244 42.3516H120.699C119.973 42.3516 119.287 42.2168 118.643 41.9473C117.998 41.666 117.436 41.2852 116.955 40.8047C116.475 40.3242 116.094 39.7617 115.812 39.1172C115.543 38.4727 115.408 37.7871 115.408 37.0605V36.8848C115.408 36.1582 115.543 35.4727 115.812 34.8281C116.094 34.1836 116.475 33.6211 116.955 33.1406C117.436 32.6602 117.998 32.2852 118.643 32.0156C119.287 31.7344 119.973 31.5938 120.699 31.5938H125.27V28.8164C125.27 28.3828 125.188 27.9785 125.023 27.6035C124.859 27.2168 124.637 26.8828 124.355 26.6016C124.074 26.3203 123.74 26.0977 123.354 25.9336C122.979 25.7695 122.574 25.6875 122.141 25.6875H120.875C120.441 25.6875 120.031 25.7695 119.645 25.9336C119.27 26.0977 118.941 26.3203 118.66 26.6016C118.379 26.8828 118.156 27.2168 117.992 27.6035C117.828 27.9785 117.746 28.3828 117.746 28.8164V29.4668L115.584 29.1152V28.9395C115.584 28.2129 115.719 27.5273 115.988 26.8828C116.27 26.2383 116.65 25.6758 117.131 25.1953C117.611 24.7148 118.174 24.3398 118.818 24.0703C119.463 23.7891 120.148 23.6484 120.875 23.6484H122.141C122.867 23.6484 123.553 23.7891 124.197 24.0703C124.842 24.3398 125.404 24.7148 125.885 25.1953C126.365 25.6758 126.74 26.2383 127.01 26.8828C127.291 27.5273 127.432 28.2129 127.432 28.9395V42H126.711ZM125.27 33.2812H120.699C120.266 33.2812 119.855 33.3633 119.469 33.5273C119.094 33.6914 118.766 33.9199 118.484 34.2129C118.203 34.4941 117.98 34.8281 117.816 35.2148C117.652 35.5898 117.57 35.9941 117.57 36.4277V37.1836C117.57 37.6172 117.652 38.0273 117.816 38.4141C117.98 38.7891 118.203 39.1172 118.484 39.3984C118.766 39.6797 119.094 39.9023 119.469 40.0664C119.855 40.2305 120.266 40.3125 120.699 40.3125H122.141C122.574 40.3125 122.979 40.2305 123.354 40.0664C123.74 39.9023 124.074 39.6797 124.355 39.3984C124.637 39.1172 124.859 38.7891 125.023 38.4141C125.188 38.0273 125.27 37.6172 125.27 37.1836V33.2812Z" fill="white"/>
<defs>
<linearGradient id="paint0_linear" x1="53.1001" y1="5.85208" x2="22.0465" y2="56.1987" gradientUnits="userSpaceOnUse">
<stop stop-color="#6B5176"/>
<stop offset="1" stop-color="#679FCB"/>
</linearGradient>
<linearGradient id="paint1_linear" x1="46.4219" y1="7.06634" x2="18.1806" y2="48.0499" gradientUnits="userSpaceOnUse">
<stop stop-color="#847EB1"/>
<stop offset="1" stop-color="#56B8E4"/>
</linearGradient>
<clipPath id="clip0">
<rect width="65.7068" height="63.678" fill="white" transform="matrix(0.999988 0.00492263 -0.00670306 0.999978 4.72086 0)"/>
</clipPath>
</defs>
</svg>
