<svg width="157" height="64" viewBox="0 0 157 64" fill="none" xmlns="http://www.w3.org/2000/svg">
<rect y="1.29259" width="156.954" height="62.0446" fill="#10074E"/>
<g clip-path="url(#clip0)">
<path d="M36.5731 61.5981C53.2401 61.6765 66.8458 48.2654 66.9624 31.6435C67.079 15.0216 53.6623 1.48331 36.9953 1.4049C20.3283 1.32649 6.72252 14.7376 6.60594 31.3595C6.48935 47.9814 19.9061 61.5197 36.5731 61.5981Z" fill="url(#paint0_linear)"/>
<path d="M25.5845 51.6548C39.0128 56.3405 53.7323 49.2741 58.4614 35.8716C63.1905 22.469 56.1383 7.80562 42.71 3.11992C29.2816 -1.56578 14.5621 5.50062 9.83304 18.9032C5.10397 32.3057 12.1561 46.9691 25.5845 51.6548Z" fill="url(#paint1_linear)"/>
<path opacity="0.6" d="M46.1765 60.0608C46.1765 60.0608 39.0394 32.6784 66.3002 37.7709C61.928 56.0534 46.1765 60.0608 46.1765 60.0608Z" fill="#70BAE1"/>
<path d="M46.9345 46.003L44.8132 42.8176C43.9369 43.9643 42.842 44.8924 41.5286 45.602C40.2153 46.2907 38.7774 46.6359 37.2148 46.6374L36.2461 46.6383C34.9544 46.6396 33.7359 46.4012 32.5906 45.9231C31.4454 45.4242 30.4462 44.7481 29.593 43.8948C28.7399 43.0415 28.064 42.0421 27.5653 40.8968C27.0875 39.7515 26.8494 38.533 26.851 37.2413L26.8513 36.9288C26.8529 35.6372 27.0939 34.4182 27.5745 33.2719C28.0758 32.1256 28.7541 31.125 29.6093 30.27C30.4645 29.415 31.4653 28.7474 32.6118 28.2671C33.7582 27.766 34.9773 27.5148 36.269 27.5136L44.3941 27.5057L44.4 22.5683C44.4009 21.7975 44.2559 21.0789 43.965 20.4125C43.6742 19.7253 43.2791 19.1319 42.7797 18.6324C42.2802 18.1329 41.687 17.7377 40.9998 17.4467C40.3335 17.1556 39.6149 17.0105 38.844 17.0113L36.594 17.0134C35.8232 17.0142 35.0938 17.1607 34.406 17.453C33.7389 17.7454 33.1551 18.1417 32.6545 18.6422C32.1539 19.1427 31.7574 19.7368 31.4649 20.4246C31.1724 21.0915 31.0257 21.8104 31.0248 22.5812L31.0234 23.7375L27.1804 23.1162L27.1807 22.8037C27.1823 21.5121 27.4233 20.2931 27.9039 19.1468C28.4052 18.0005 29.0835 16.9999 29.9387 16.1449C30.7939 15.2899 31.7947 14.6223 32.9412 14.142C34.0876 13.6409 35.3067 13.3897 36.5984 13.3885L38.8484 13.3863C40.1401 13.3851 41.3585 13.6339 42.5038 14.1328C43.6491 14.6108 44.6483 15.2765 45.5014 16.1298C46.3546 16.9832 47.0201 17.9825 47.4979 19.1279C47.9965 20.2732 48.245 21.4917 48.2435 22.7833L48.2157 46.0017L46.9345 46.003ZM44.3905 30.5057L36.2654 30.5135C35.4945 30.5143 34.7652 30.6608 34.0773 30.9532C33.4103 31.2455 32.8265 31.6523 32.3258 32.1736C31.8252 32.6741 31.4287 33.2682 31.1362 33.956C30.8437 34.6229 30.697 35.3418 30.6961 36.1126L30.6945 37.4563C30.6936 38.2272 30.8385 38.9562 31.1294 39.6434C31.4203 40.3098 31.8154 40.8927 32.3148 41.3922C32.8142 41.8917 33.3971 42.287 34.0634 42.578C34.7506 42.869 35.4796 43.0141 36.2504 43.0134L38.8129 43.0109C39.5838 43.0101 40.3027 42.8636 40.9697 42.5713C41.6576 42.279 42.2518 41.8826 42.7524 41.3821C43.253 40.8816 43.6496 40.2979 43.942 39.631C44.2345 38.9432 44.3812 38.2139 44.3822 37.4431L44.3905 30.5057Z" fill="white"/>
</g>
<path d="M80.0234 41V27.8164C80.0234 27.3828 79.9414 26.9785 79.7773 26.6035C79.6133 26.2168 79.3906 25.8828 79.1094 25.6016C78.8281 25.3203 78.4941 25.0977 78.1074 24.9336C77.7324 24.7695 77.3281 24.6875 76.8945 24.6875H75.4531C75.0195 24.6875 74.6094 24.7695 74.2227 24.9336C73.8477 25.0977 73.5195 25.3203 73.2383 25.6016C72.957 25.8828 72.7344 26.2168 72.5703 26.6035C72.4062 26.9785 72.3242 27.3828 72.3242 27.8164V41H70.1621V23H70.8828L72.0605 24.8281C72.5527 24.1602 73.168 23.6328 73.9062 23.2461C74.6562 22.8477 75.4707 22.6484 76.3496 22.6484H76.8945C77.6211 22.6484 78.3066 22.7891 78.9512 23.0703C79.5957 23.3398 80.1582 23.7148 80.6387 24.1953C81.1191 24.6758 81.4941 25.2383 81.7637 25.8828C82.0449 26.5273 82.1855 27.2129 82.1855 27.9395V41H80.0234ZM97.8125 41L96.6172 39.207C96.125 39.8516 95.5098 40.373 94.7715 40.7715C94.0332 41.1582 93.2246 41.3516 92.3457 41.3516H91.8008C91.0742 41.3516 90.3887 41.2168 89.7441 40.9473C89.0996 40.666 88.5371 40.2852 88.0566 39.8047C87.5762 39.3242 87.1953 38.7617 86.9141 38.1172C86.6445 37.4727 86.5098 36.7871 86.5098 36.0605V35.8848C86.5098 35.1582 86.6445 34.4727 86.9141 33.8281C87.1953 33.1836 87.5762 32.6211 88.0566 32.1406C88.5371 31.6602 89.0996 31.2852 89.7441 31.0156C90.3887 30.7344 91.0742 30.5938 91.8008 30.5938H96.3711V27.8164C96.3711 27.3828 96.2891 26.9785 96.125 26.6035C95.9609 26.2168 95.7383 25.8828 95.457 25.6016C95.1758 25.3203 94.8418 25.0977 94.4551 24.9336C94.0801 24.7695 93.6758 24.6875 93.2422 24.6875H91.9766C91.543 24.6875 91.1328 24.7695 90.7461 24.9336C90.3711 25.0977 90.043 25.3203 89.7617 25.6016C89.4805 25.8828 89.2578 26.2168 89.0938 26.6035C88.9297 26.9785 88.8477 27.3828 88.8477 27.8164V28.4668L86.6855 28.1152V27.9395C86.6855 27.2129 86.8203 26.5273 87.0898 25.8828C87.3711 25.2383 87.752 24.6758 88.2324 24.1953C88.7129 23.7148 89.2754 23.3398 89.9199 23.0703C90.5645 22.7891 91.25 22.6484 91.9766 22.6484H93.2422C93.9688 22.6484 94.6543 22.7891 95.2988 23.0703C95.9434 23.3398 96.5059 23.7148 96.9863 24.1953C97.4668 24.6758 97.8418 25.2383 98.1113 25.8828C98.3926 26.5273 98.5332 27.2129 98.5332 27.9395V41H97.8125ZM96.3711 32.2812H91.8008C91.3672 32.2812 90.957 32.3633 90.5703 32.5273C90.1953 32.6914 89.8672 32.9199 89.5859 33.2129C89.3047 33.4941 89.082 33.8281 88.918 34.2148C88.7539 34.5898 88.6719 34.9941 88.6719 35.4277V36.1836C88.6719 36.6172 88.7539 37.0273 88.918 37.4141C89.082 37.7891 89.3047 38.1172 89.5859 38.3984C89.8672 38.6797 90.1953 38.9023 90.5703 39.0664C90.957 39.2305 91.3672 39.3125 91.8008 39.3125H93.2422C93.6758 39.3125 94.0801 39.2305 94.4551 39.0664C94.8418 38.9023 95.1758 38.6797 95.457 38.3984C95.7383 38.1172 95.9609 37.7891 96.125 37.4141C96.2891 37.0273 96.3711 36.6172 96.3711 36.1836V32.2812ZM112.719 41V27.8164C112.719 27.3828 112.637 26.9785 112.473 26.6035C112.309 26.2168 112.086 25.8828 111.805 25.6016C111.523 25.3203 111.189 25.0977 110.803 24.9336C110.428 24.7695 110.023 24.6875 109.59 24.6875H108.148C107.715 24.6875 107.305 24.7695 106.918 24.9336C106.543 25.0977 106.215 25.3203 105.934 25.6016C105.652 25.8828 105.43 26.2168 105.266 26.6035C105.102 26.9785 105.02 27.3828 105.02 27.8164V41H102.857V23H103.578L104.756 24.8281C105.248 24.1602 105.863 23.6328 106.602 23.2461C107.352 22.8477 108.166 22.6484 109.045 22.6484H109.59C110.316 22.6484 111.002 22.7891 111.646 23.0703C112.291 23.3398 112.854 23.7148 113.334 24.1953C113.814 24.6758 114.189 25.2383 114.459 25.8828C114.74 26.5273 114.881 27.2129 114.881 27.9395V41H112.719ZM122.123 48.207H120.031L123.23 39.4531L117.395 23H119.557L124.25 36.6406L124.32 37.5723L124.391 36.6406L129.066 23H131.229L122.123 48.207ZM144.711 41L143.516 39.207C143.023 39.8516 142.408 40.373 141.67 40.7715C140.932 41.1582 140.123 41.3516 139.244 41.3516H138.699C137.973 41.3516 137.287 41.2168 136.643 40.9473C135.998 40.666 135.436 40.2852 134.955 39.8047C134.475 39.3242 134.094 38.7617 133.812 38.1172C133.543 37.4727 133.408 36.7871 133.408 36.0605V35.8848C133.408 35.1582 133.543 34.4727 133.812 33.8281C134.094 33.1836 134.475 32.6211 134.955 32.1406C135.436 31.6602 135.998 31.2852 136.643 31.0156C137.287 30.7344 137.973 30.5938 138.699 30.5938H143.27V27.8164C143.27 27.3828 143.188 26.9785 143.023 26.6035C142.859 26.2168 142.637 25.8828 142.355 25.6016C142.074 25.3203 141.74 25.0977 141.354 24.9336C140.979 24.7695 140.574 24.6875 140.141 24.6875H138.875C138.441 24.6875 138.031 24.7695 137.645 24.9336C137.27 25.0977 136.941 25.3203 136.66 25.6016C136.379 25.8828 136.156 26.2168 135.992 26.6035C135.828 26.9785 135.746 27.3828 135.746 27.8164V28.4668L133.584 28.1152V27.9395C133.584 27.2129 133.719 26.5273 133.988 25.8828C134.27 25.2383 134.65 24.6758 135.131 24.1953C135.611 23.7148 136.174 23.3398 136.818 23.0703C137.463 22.7891 138.148 22.6484 138.875 22.6484H140.141C140.867 22.6484 141.553 22.7891 142.197 23.0703C142.842 23.3398 143.404 23.7148 143.885 24.1953C144.365 24.6758 144.74 25.2383 145.01 25.8828C145.291 26.5273 145.432 27.2129 145.432 27.9395V41H144.711ZM143.27 32.2812H138.699C138.266 32.2812 137.855 32.3633 137.469 32.5273C137.094 32.6914 136.766 32.9199 136.484 33.2129C136.203 33.4941 135.98 33.8281 135.816 34.2148C135.652 34.5898 135.57 34.9941 135.57 35.4277V36.1836C135.57 36.6172 135.652 37.0273 135.816 37.4141C135.98 37.7891 136.203 38.1172 136.484 38.3984C136.766 38.6797 137.094 38.9023 137.469 39.0664C137.855 39.2305 138.266 39.3125 138.699 39.3125H140.141C140.574 39.3125 140.979 39.2305 141.354 39.0664C141.74 38.9023 142.074 38.6797 142.355 38.3984C142.637 38.1172 142.859 37.7891 143.023 37.4141C143.188 37.0273 143.27 36.6172 143.27 36.1836V32.2812Z" fill="white"/>
<defs>
<linearGradient id="paint0_linear" x1="51.6923" y1="5.7479" x2="20.8554" y2="54.8273" gradientUnits="userSpaceOnUse">
<stop stop-color="#6B5176"/>
<stop offset="1" stop-color="#679FCB"/>
</linearGradient>
<linearGradient id="paint1_linear" x1="45.2378" y1="6.94557" x2="17.2403" y2="46.8277" gradientUnits="userSpaceOnUse">
<stop stop-color="#847EB1"/>
<stop offset="1" stop-color="#56B8E4"/>
</linearGradient>
<clipPath id="clip0">
<rect width="63.5008" height="62.7028" fill="white" transform="matrix(0.999989 0.00470454 -0.00701379 0.999975 4.9397 0)"/>
</clipPath>
</defs>
</svg>
